<?xml version="1.0" encoding="UTF-8"?><svg id="Layer_1" xmlns="http://www.w3.org/2000/svg" viewBox="0 0 42.32 42.32"><line x1=".41" y1="42.14" x2="41.91" y2=".18" style="fill:none; stroke:#fff; stroke-miterlimit:10;"/><line x1=".41" y1="42.14" x2="41.91" y2=".18" style="fill:none; stroke:#fff; stroke-miterlimit:10;"/><path d="M21.16,1.16c11.03,0,20,8.97,20,20s-8.97,20-20,20S1.16,32.19,1.16,21.16,10.13,1.16,21.16,1.16M21.16.16C9.56.16.16,9.56.16,21.16s9.4,21,21,21,21-9.4,21-21S32.76.16,21.16.16h0Z" style="fill:#fff;"/><line x1="42.14" y1="41.91" x2=".18" y2=".41" style="fill:none; stroke:#fff; stroke-miterlimit:10;"/><line x1="42.14" y1="41.91" x2=".18" y2=".41" style="fill:none; stroke:#fff; stroke-miterlimit:10;"/><path d="M21.16,1.16c11.03,0,20,8.97,20,20s-8.97,20-20,20S1.16,32.19,1.16,21.16,10.13,1.16,21.16,1.16M21.16.16C9.56.16.16,9.56.16,21.16s9.4,21,21,21,21-9.4,21-21S32.76.16,21.16.16h0Z" style="fill:#fff;"/></svg>