<?xml version="1.0" encoding="UTF-8"?><svg id="Layer_1" xmlns="http://www.w3.org/2000/svg" viewBox="0 0 42.01 42"><path d="M21,1c11.03,0,20,8.97,20,20s-8.97,20-20,20S1,32.03,1,21,9.97,1,21,1M21,0C9.4,0,0,9.4,0,21s9.4,21,21,21,21-9.4,21-21S32.6,0,21,0h0Z" style="fill:#fff;"/><path d="M21,1c11.03,0,20,8.97,20,20s-8.97,20-20,20S1,32.03,1,21,9.97,1,21,1M21,0C9.4,0,0,9.4,0,21s9.4,21,21,21,21-9.4,21-21S32.6,0,21,0h0Z" style="fill:#fff;"/><line x1=".22" y1="20.84" x2="42.01" y2="20.84" style="fill:none; stroke:#fff; stroke-miterlimit:10;"/></svg>