<?xml version="1.0" encoding="UTF-8"?>
<svg id="Layer_1" xmlns="http://www.w3.org/2000/svg" version="1.1" viewBox="0 0 427.2 161.9">
  <!-- Generator: Adobe Illustrator 29.2.1, SVG Export Plug-In . SVG Version: 2.1.0 Build 116)  -->
  <defs>
    <style>
      .st0 {
        fill: #fff;
      }
    </style>
  </defs>
  <rect class="st0" x="200.5" y="58.5" width="4.6" height="31.4"/>
  <path class="st0" d="M219.4,89.9l-.3-2.4c-1.8,1.8-3.8,2.8-6.2,2.8s-5.1-2.2-5.1-6,.9-4.5,2.9-6c1.7-1.4,4.6-2.3,8.2-3.4.3-3-.4-4.4-2.7-4.4s-3,1.1-3.7,3.1l-3.8-.9c1-3.7,3.2-6,7.7-6s7,2.4,7,7.2v11.7l.3,4.3h-4.4ZM218.8,78.2c-2.5.7-3.9,1.3-4.9,2.1-.9.7-1.3,1.9-1.3,3.3s.7,2.8,2.2,2.8,2.9-.8,3.9-2.2v-6Z"/>
  <path class="st0" d="M238.2,89.9v-15.3c0-2.5-.7-3.5-2.4-3.5s-2.4.7-3.8,2.3v16.5h-4.6v-22.7h4.5v2.7c1.9-2.1,3.6-3.1,5.9-3.1s3.3.7,4,2.1c.7,1.2.9,2.8.9,5.3v15.8h-4.6Z"/>
  <path class="st0" d="M253.9,90.3c-5.5,0-8.1-3.6-8.1-11.9s2.8-11.7,8.2-11.7,8,4.7,8,10.5,0,1.4,0,2.2h-11.7c.2,4.8,1.2,7,3.9,7s3.2-1.4,3.9-3.8l3.9.8c-1.2,4.8-3.9,6.9-8,6.9M250.3,76.1h7.2c0-3.4-1-5.6-3.5-5.6s-3.4,2-3.7,5.6"/>
  <path class="st0" d="M275.2,89.8c-1.1.2-2.3.3-3.6.3-3.8,0-5.2-1.4-5.2-5.7v-13.3h-3v-3.9h3v-7.4h4.6v7.4h4.2v3.9h-4.2v12.5c0,1.6.6,2.3,2,2.3s1.4,0,2.2-.3v4.2Z"/>
  <path class="st0" d="M288.7,89.9l-.3-2.4c-1.8,1.8-3.8,2.8-6.2,2.8s-5.1-2.2-5.1-6,.9-4.5,2.9-6c1.7-1.4,4.6-2.3,8.2-3.4.3-3-.4-4.4-2.7-4.4s-3,1.1-3.7,3.1l-3.8-.9c1-3.7,3.2-6,7.7-6s7,2.4,7,7.2v11.7l.3,4.3h-4.4ZM288.1,78.2c-2.5.7-3.9,1.3-4.9,2.1-.9.7-1.3,1.9-1.3,3.3s.7,2.8,2.2,2.8,2.9-.8,3.9-2.2v-6Z"/>
  <path class="st0" d="M296.6,89.9v-22.7h4.5v3.8c1.5-2.7,3-4.2,5.4-4.2s.4,0,.7,0v4.8c-.3,0-.7,0-.9,0-2.2,0-3.8,1.4-5.1,3.9v14.5h-4.6Z"/>
  <path class="st0" d="M309.5,58.3h4.8v5.2h-4.8v-5.2ZM309.6,67.2h4.6v22.7h-4.6v-22.7Z"/>
  <path class="st0" d="M328.9,89.9v-2.7c-1.9,2.1-3.7,3.1-6,3.1s-3.2-.7-4-2c-.7-1.2-1-2.8-1-5.3v-15.8h4.7v15.3c0,2.5.6,3.5,2.3,3.5s2.4-.7,3.7-2.3v-16.5h4.7v22.7h-4.5Z"/>
  <path class="st0" d="M358,89.9v-15.4c0-2.5-.9-3.3-2.1-3.3s-2.4.7-3.5,2.1v16.6h-4.6v-15.3c0-2.4-.5-3.5-2.1-3.5s-2.5.9-3.6,2.3v16.4h-4.6v-22.7h4.5v2.7c1.7-2,3.6-3.1,5.7-3.1s3.6,1.1,4.2,3.1c1.8-2.1,3.6-3.1,5.9-3.1,3.6,0,4.9,2.8,4.9,7v16.2h-4.6Z"/>
  <path class="st0" d="M196.6,134.8v-22.7h4.5v3.8c1.5-2.7,3-4.2,5.4-4.2s.4,0,.7,0v4.8c-.3,0-.7,0-.9,0-2.2,0-3.8,1.4-5.1,3.9v14.5h-4.6Z"/>
  <path class="st0" d="M209.4,103.2h4.8v5.2h-4.8v-5.2ZM209.5,112.1h4.6v22.7h-4.6v-22.7Z"/>
  <path class="st0" d="M228.3,134.7c-1.1.2-2.3.3-3.6.3-3.8,0-5.2-1.4-5.2-5.7v-13.3h-3v-3.9h3v-7.4h4.6v7.4h4.2v3.9h-4.2v12.5c0,1.6.6,2.3,2,2.3s1.4,0,2.2-.3v4.2Z"/>
  <polygon class="st0" points="230.1 134.8 230.1 131.3 239 116 230.9 116 230.9 112.1 244.5 112.1 244.5 115.6 235.6 130.9 244.7 130.9 244.7 134.8 230.1 134.8"/>
  <rect class="st0" x="247.4" y="103.4" width="4.6" height="31.4"/>
  <path class="st0" d="M266.4,134.8l-.3-2.4c-1.8,1.8-3.8,2.8-6.2,2.8s-5.1-2.2-5.1-6,.9-4.5,2.9-6c1.7-1.4,4.6-2.3,8.2-3.4.3-3-.4-4.4-2.7-4.4s-3,1.1-3.7,3.1l-3.8-.9c1-3.7,3.2-6,7.7-6s7,2.4,7,7.2v11.7l.3,4.3h-4.4ZM265.7,123.1c-2.5.7-3.9,1.3-4.9,2.1-.9.7-1.3,1.9-1.3,3.3s.7,2.8,2.2,2.8,2.9-.8,3.9-2.2v-6Z"/>
  <path class="st0" d="M274.3,134.8v-22.7h4.5v3.8c1.5-2.7,3-4.2,5.4-4.2s.4,0,.7,0v4.8c-.4,0-.7,0-.9,0-2.2,0-3.8,1.4-5.1,3.9v14.5h-4.6Z"/>
  <path class="st0" d="M179.2,89.9v-31.4h8c6.9,0,10.4,2.9,10.4,9.4s-3.6,9.6-10.4,9.6h-2.8v12.5h-5.2ZM187.4,72.9c2.5,0,4.9-1.1,4.9-5s-1.7-4.6-4.8-4.6h-3.1v9.6h3.1Z"/>
  <polygon class="st0" points="179.2 134.8 179.2 103.4 195.5 103.4 195.5 108.2 184.4 108.2 184.4 116.3 192.6 116.3 192.6 120.9 184.4 120.9 184.4 134.8 179.2 134.8"/>
  <g>
    <g>
      <path class="st0" d="M143.9,87.2l-2.5-3c-7.6,1.4-16.4,2.2-25.9,2.2s-7.6-.1-11.2-.4l10.5,10.9,29.2-9.8Z"/>
      <path class="st0" d="M113.7,97.3l-10.9-11.4c-.9,0-1.8-.2-2.7-.2l-29.5,7.3v5.2l11.9,9.6,13.2-4.4v-9.6h5.5v7.8l12.4-4.1Z"/>
      <path class="st0" d="M70.6,78.1v13.9l26.6-6.6c-11.3-1.4-20.7-4-26.4-7.3h-.2Z"/>
      <polygon class="st0" points="70.6 99.5 70.6 111.7 81.4 108.1 70.6 99.5"/>
      <polygon class="st0" points="125.6 109.8 114.4 98.1 101.2 102.5 101.2 116.9 125.6 109.8"/>
      <polygon class="st0" points="129 109.9 127.5 110.3 129 111.9 129 109.9"/>
      <polygon class="st0" points="129 113.3 126.4 110.6 101.2 118 101.2 122.8 113.3 132.4 129 127.5 129 113.3"/>
      <polygon class="st0" points="114 134.3 113.1 133.5 110.5 134.3 114 134.3"/>
      <polygon class="st0" points="155.6 101.1 144.6 88 115.5 97.8 126.7 109.5 129 108.8 129 93.7 135.1 93.7 135.1 107 155.6 101.1"/>
      <path class="st0" d="M142.5,84l2.4,2.9,15.3-5.1v-3.7h0c-4.2,2.4-10.3,4.5-17.7,5.9Z"/>
      <polygon class="st0" points="95.7 119.6 70.6 126.9 70.6 134.3 95.7 134.3 95.7 119.6 95.7 119.6"/>
      <polygon class="st0" points="156.6 100.8 160.2 99.7 160.2 82.8 145.6 87.7 156.6 100.8"/>
      <polygon class="st0" points="82.3 108.9 70.6 112.8 70.6 125.9 94.7 118.8 82.3 108.9"/>
      <polygon class="st0" points="114.2 133.2 115.6 134.3 129 134.3 129 128.5 114.2 133.2"/>
      <polygon class="st0" points="140.2 125 135.1 126.6 135.1 134.3 149.2 134.3 140.2 125"/>
      <polygon class="st0" points="141.2 124.7 150.5 134.3 160.2 134.3 160.2 118.7 141.2 124.7"/>
      <polygon class="st0" points="112.1 132.8 101.2 124.1 101.2 134.3 107.2 134.3 112.1 132.8"/>
      <polygon class="st0" points="95.7 104.4 83.4 108.5 95.7 118.3 95.7 104.4"/>
      <polygon class="st0" points="135.1 119.7 135.1 125.5 139.4 124.2 135.1 119.7"/>
      <polygon class="st0" points="160.2 117.6 160.2 106.6 156.3 101.9 135.1 108.1 135.1 118.3 140.5 123.9 160.2 117.6"/>
      <polygon class="st0" points="160.2 105.1 160.2 100.7 157.3 101.6 160.2 105.1"/>
    </g>
    <g>
      <polygon class="st0" points="106.8 43.2 102.1 37.6 92.9 40.3 97.6 45.7 106.8 43.2"/>
      <polygon class="st0" points="115.4 80.9 124.9 78.5 110 61.4 99 65 115.4 80.9"/>
      <path class="st0" d="M120.2,32.4l4.3,6,16.3-4.5c-2.2-2.1-4.6-3.9-7.2-5.5l-13.5,3.9Z"/>
      <path class="st0" d="M126.7,79.1l3.5,4c3.2-.3,6.3-.7,9.2-1.2l-4.1-4.9-8.5,2.1Z"/>
      <polygon class="st0" points="134.1 53.5 120.5 58 135.6 75.8 148 72.8 134.1 53.5"/>
      <path class="st0" d="M141.6,34.7l-16.5,4.5,9.4,13.1,15.5-5.1c-2.1-4.7-4.9-9-8.4-12.6Z"/>
      <path class="st0" d="M115.5,83.7c.5,0,.9,0,1.4,0l-1.8-1.7-6.4,1.6c2.2,0,4.5.1,6.8.1Z"/>
      <path class="st0" d="M116.2,81.7l2.1,2c3.7,0,7.3-.2,10.7-.5l-3.3-3.8-9.4,2.3Z"/>
      <path class="st0" d="M90.5,37.5l1.7,2,9.2-2.7-3.6-4.3c-2.2,1.3-4.8,2.9-7.3,5Z"/>
      <polygon class="st0" points="119.5 58.3 111 61.1 126 78.2 134.5 76.1 119.5 58.3"/>
      <polygon class="st0" points="124.1 39.5 108.6 43.8 119.8 57.1 133.5 52.7 124.1 39.5"/>
      <polygon class="st0" points="98.4 46.5 110.3 60.3 118.8 57.5 107.5 44 98.4 46.5"/>
      <path class="st0" d="M157.1,66c-1.1,0-2.2,0-3.3,0,0-1.8,0-3.9-.3-6.1-.1-1.1-.3-2.2-.5-3.2,0-.1,0-.3,0-.4,0-.1,0-.2,0-.4,0-.2,0-.5-.1-.7,0,0,0-.1,0-.2-.5-2.4-1.3-4.7-2.2-6.9l-15.3,5,13.9,19.3,17.2-4.3c0-.2,0-.3,0-.5,0-3.5-3.5-6.7-9.4-9.3,0,.3,0,.6,0,.8.2,2.5.3,4.8.1,6.7Z"/>
      <path class="st0" d="M91.2,39.8l-1.5-1.7c-1.1.9-2.2,2-3.2,3l4.7-1.4Z"/>
      <path class="st0" d="M83.1,49.7l13.5-3.7-4.7-5.4-6.7,2c-.7.8-1.3,1.6-1.9,2.4-.7,1-1.3,2.1-1.9,3.1l1.7,1.6Z"/>
      <path class="st0" d="M102.4,36.5l16.1-4.7-5.9-8.3c-3.3.3-6.4,1-9.4,2.1v4.1c-.6.3-2.3,1-4.5,2.3l3.8,4.5Z"/>
      <path class="st0" d="M85.8,68.3l-6.1-6.4.7-.7,6.4,6.7,10.2-3.4-14.3-13.8-3.1.8c-1.2,2.7-1.8,5-1.9,6,0,.3-.3,2.5-.3,2.7-.2,1.4-.2,1.8-.3,2.5,0,.8,0,1.6,0,2.1,0,.6,0,1.2,0,1.6-1.1,0-2.2,0-3.3,0-.1-1.9-.1-4.2.1-6.7,0-.5,0-.9.2-1.4-6,2.6-9.5,5.8-9.5,9.3s1.4,4.3,4,6.2l17.2-5.6Z"/>
      <path class="st0" d="M82,50l-1-1c-.2.5-.5,1-.7,1.5l1.7-.5Z"/>
      <path class="st0" d="M101.4,83.1c1.3.1,2.5.2,3.9.3l9-2.2-16.3-15.8-10.3,3.4,13.8,14.3Z"/>
      <polygon class="st0" points="103.1 37.3 107.8 42.9 123.5 38.6 119.2 32.7 103.1 37.3"/>
      <polygon class="st0" points="98.1 64.3 109.3 60.6 97.3 46.8 83.9 50.5 98.1 64.3"/>
      <path class="st0" d="M119.6,31.5l12.9-3.8c-5.1-2.8-10.9-4.3-17-4.3s-1.1,0-1.7,0l5.8,8Z"/>
      <path class="st0" d="M149.6,73.4l3.2,4.5-.8.6-3.5-4.8-12.3,3.1,4.2,5c4.1-.7,7.8-1.6,11.1-2.7,7.9-2.5,13.2-5.9,14.4-9.6l-16.4,4.1Z"/>
      <path class="st0" d="M69.6,74.6c2.4,1.6,5.7,3.1,9.7,4.3,5.7,1.8,12.7,3.2,20.6,4l-13.3-13.8-16.9,5.5Z"/>
    </g>
  </g>
  <rect class="st0" x="200.5" y="58.5" width="4.6" height="31.4"/>
  <path class="st0" d="M219.4,89.9l-.3-2.4c-1.8,1.8-3.8,2.8-6.2,2.8s-5.1-2.2-5.1-6,.9-4.5,2.9-6c1.7-1.4,4.6-2.3,8.2-3.4.3-3-.4-4.4-2.7-4.4s-3,1.1-3.7,3.1l-3.8-.9c1-3.7,3.2-6,7.7-6s7,2.4,7,7.2v11.7l.3,4.3h-4.4ZM218.8,78.2c-2.5.7-3.9,1.3-4.9,2.1-.9.7-1.3,1.9-1.3,3.3s.7,2.8,2.2,2.8,2.9-.8,3.9-2.2v-6Z"/>
  <path class="st0" d="M238.2,89.9v-15.3c0-2.5-.7-3.5-2.4-3.5s-2.4.7-3.8,2.3v16.5h-4.6v-22.7h4.5v2.7c1.9-2.1,3.6-3.1,5.9-3.1s3.3.7,4,2.1c.7,1.2.9,2.8.9,5.3v15.8h-4.6Z"/>
  <path class="st0" d="M253.9,90.3c-5.5,0-8.1-3.6-8.1-11.9s2.8-11.7,8.2-11.7,8,4.7,8,10.5,0,1.4,0,2.2h-11.7c.2,4.8,1.2,7,3.9,7s3.2-1.4,3.9-3.8l3.9.8c-1.2,4.8-3.9,6.9-8,6.9M250.3,76.1h7.2c0-3.4-1-5.6-3.5-5.6s-3.4,2-3.7,5.6"/>
  <path class="st0" d="M275.2,89.8c-1.1.2-2.3.3-3.6.3-3.8,0-5.2-1.4-5.2-5.7v-13.3h-3v-3.9h3v-7.4h4.6v7.4h4.2v3.9h-4.2v12.5c0,1.6.6,2.3,2,2.3s1.4,0,2.2-.3v4.2Z"/>
  <path class="st0" d="M288.7,89.9l-.3-2.4c-1.8,1.8-3.8,2.8-6.2,2.8s-5.1-2.2-5.1-6,.9-4.5,2.9-6c1.7-1.4,4.6-2.3,8.2-3.4.3-3-.4-4.4-2.7-4.4s-3,1.1-3.7,3.1l-3.8-.9c1-3.7,3.2-6,7.7-6s7,2.4,7,7.2v11.7l.3,4.3h-4.4ZM288.1,78.2c-2.5.7-3.9,1.3-4.9,2.1-.9.7-1.3,1.9-1.3,3.3s.7,2.8,2.2,2.8,2.9-.8,3.9-2.2v-6Z"/>
  <path class="st0" d="M296.6,89.9v-22.7h4.5v3.8c1.5-2.7,3-4.2,5.4-4.2s.4,0,.7,0v4.8c-.3,0-.7,0-.9,0-2.2,0-3.8,1.4-5.1,3.9v14.5h-4.6Z"/>
  <path class="st0" d="M309.5,58.3h4.8v5.2h-4.8v-5.2ZM309.6,67.2h4.6v22.7h-4.6v-22.7Z"/>
  <path class="st0" d="M328.9,89.9v-2.7c-1.9,2.1-3.7,3.1-6,3.1s-3.2-.7-4-2c-.7-1.2-1-2.8-1-5.3v-15.8h4.7v15.3c0,2.5.6,3.5,2.3,3.5s2.4-.7,3.7-2.3v-16.5h4.7v22.7h-4.5Z"/>
  <path class="st0" d="M358,89.9v-15.4c0-2.5-.9-3.3-2.1-3.3s-2.4.7-3.5,2.1v16.6h-4.6v-15.3c0-2.4-.5-3.5-2.1-3.5s-2.5.9-3.6,2.3v16.4h-4.6v-22.7h4.5v2.7c1.7-2,3.6-3.1,5.7-3.1s3.6,1.1,4.2,3.1c1.8-2.1,3.6-3.1,5.9-3.1,3.6,0,4.9,2.8,4.9,7v16.2h-4.6Z"/>
  <path class="st0" d="M196.6,134.8v-22.7h4.5v3.8c1.5-2.7,3-4.2,5.4-4.2s.4,0,.7,0v4.8c-.3,0-.7,0-.9,0-2.2,0-3.8,1.4-5.1,3.9v14.5h-4.6Z"/>
  <path class="st0" d="M209.4,103.2h4.8v5.2h-4.8v-5.2ZM209.5,112.1h4.6v22.7h-4.6v-22.7Z"/>
  <path class="st0" d="M228.3,134.7c-1.1.2-2.3.3-3.6.3-3.8,0-5.2-1.4-5.2-5.7v-13.3h-3v-3.9h3v-7.4h4.6v7.4h4.2v3.9h-4.2v12.5c0,1.6.6,2.3,2,2.3s1.4,0,2.2-.3v4.2Z"/>
  <polygon class="st0" points="230.1 134.8 230.1 131.3 239 116 230.9 116 230.9 112.1 244.5 112.1 244.5 115.6 235.6 130.9 244.7 130.9 244.7 134.8 230.1 134.8"/>
  <rect class="st0" x="247.4" y="103.4" width="4.6" height="31.4"/>
  <path class="st0" d="M266.4,134.8l-.3-2.4c-1.8,1.8-3.8,2.8-6.2,2.8s-5.1-2.2-5.1-6,.9-4.5,2.9-6c1.7-1.4,4.6-2.3,8.2-3.4.3-3-.4-4.4-2.7-4.4s-3,1.1-3.7,3.1l-3.8-.9c1-3.7,3.2-6,7.7-6s7,2.4,7,7.2v11.7l.3,4.3h-4.4ZM265.7,123.1c-2.5.7-3.9,1.3-4.9,2.1-.9.7-1.3,1.9-1.3,3.3s.7,2.8,2.2,2.8,2.9-.8,3.9-2.2v-6Z"/>
  <path class="st0" d="M274.3,134.8v-22.7h4.5v3.8c1.5-2.7,3-4.2,5.4-4.2s.4,0,.7,0v4.8c-.4,0-.7,0-.9,0-2.2,0-3.8,1.4-5.1,3.9v14.5h-4.6Z"/>
  <path class="st0" d="M179.2,89.9v-31.4h8c6.9,0,10.4,2.9,10.4,9.4s-3.6,9.6-10.4,9.6h-2.8v12.5h-5.2ZM187.4,72.9c2.5,0,4.9-1.1,4.9-5s-1.7-4.6-4.8-4.6h-3.1v9.6h3.1Z"/>
  <polygon class="st0" points="179.2 134.8 179.2 103.4 195.5 103.4 195.5 108.2 184.4 108.2 184.4 116.3 192.6 116.3 192.6 120.9 184.4 120.9 184.4 134.8 179.2 134.8"/>
  <g>
    <g>
      <path class="st0" d="M143.9,87.2l-2.5-3c-7.6,1.4-16.4,2.2-25.9,2.2s-7.6-.1-11.2-.4l10.5,10.9,29.2-9.8Z"/>
      <path class="st0" d="M113.7,97.3l-10.9-11.4c-.9,0-1.8-.2-2.7-.2l-29.5,7.3v5.2l11.9,9.6,13.2-4.4v-9.6h5.5v7.8l12.4-4.1Z"/>
      <path class="st0" d="M70.6,78.1v13.9l26.6-6.6c-11.3-1.4-20.7-4-26.4-7.3h-.2Z"/>
      <polygon class="st0" points="70.6 99.5 70.6 111.7 81.4 108.1 70.6 99.5"/>
      <polygon class="st0" points="125.6 109.8 114.4 98.1 101.2 102.5 101.2 116.9 125.6 109.8"/>
      <polygon class="st0" points="129 109.9 127.5 110.3 129 111.9 129 109.9"/>
      <polygon class="st0" points="129 113.3 126.4 110.6 101.2 118 101.2 122.8 113.3 132.4 129 127.5 129 113.3"/>
      <polygon class="st0" points="114 134.3 113.1 133.5 110.5 134.3 114 134.3"/>
      <polygon class="st0" points="155.6 101.1 144.6 88 115.5 97.8 126.7 109.5 129 108.8 129 93.7 135.1 93.7 135.1 107 155.6 101.1"/>
      <path class="st0" d="M142.5,84l2.4,2.9,15.3-5.1v-3.7h0c-4.2,2.4-10.3,4.5-17.7,5.9Z"/>
      <polygon class="st0" points="95.7 119.6 70.6 126.9 70.6 134.3 95.7 134.3 95.7 119.6 95.7 119.6"/>
      <polygon class="st0" points="156.6 100.8 160.2 99.7 160.2 82.8 145.6 87.7 156.6 100.8"/>
      <polygon class="st0" points="82.3 108.9 70.6 112.8 70.6 125.9 94.7 118.8 82.3 108.9"/>
      <polygon class="st0" points="114.2 133.2 115.6 134.3 129 134.3 129 128.5 114.2 133.2"/>
      <polygon class="st0" points="140.2 125 135.1 126.6 135.1 134.3 149.2 134.3 140.2 125"/>
      <polygon class="st0" points="141.2 124.7 150.5 134.3 160.2 134.3 160.2 118.7 141.2 124.7"/>
      <polygon class="st0" points="112.1 132.8 101.2 124.1 101.2 134.3 107.2 134.3 112.1 132.8"/>
      <polygon class="st0" points="95.7 104.4 83.4 108.5 95.7 118.3 95.7 104.4"/>
      <polygon class="st0" points="135.1 119.7 135.1 125.5 139.4 124.2 135.1 119.7"/>
      <polygon class="st0" points="160.2 117.6 160.2 106.6 156.3 101.9 135.1 108.1 135.1 118.3 140.5 123.9 160.2 117.6"/>
      <polygon class="st0" points="160.2 105.1 160.2 100.7 157.3 101.6 160.2 105.1"/>
    </g>
    <g>
      <polygon class="st0" points="106.8 43.2 102.1 37.6 92.9 40.3 97.6 45.7 106.8 43.2"/>
      <polygon class="st0" points="115.4 80.9 124.9 78.5 110 61.4 99 65 115.4 80.9"/>
      <path class="st0" d="M120.2,32.4l4.3,6,16.3-4.5c-2.2-2.1-4.6-3.9-7.2-5.5l-13.5,3.9Z"/>
      <path class="st0" d="M126.7,79.1l3.5,4c3.2-.3,6.3-.7,9.2-1.2l-4.1-4.9-8.5,2.1Z"/>
      <polygon class="st0" points="134.1 53.5 120.5 58 135.6 75.8 148 72.8 134.1 53.5"/>
      <path class="st0" d="M141.6,34.7l-16.5,4.5,9.4,13.1,15.5-5.1c-2.1-4.7-4.9-9-8.4-12.6Z"/>
      <path class="st0" d="M115.5,83.7c.5,0,.9,0,1.4,0l-1.8-1.7-6.4,1.6c2.2,0,4.5.1,6.8.1Z"/>
      <path class="st0" d="M116.2,81.7l2.1,2c3.7,0,7.3-.2,10.7-.5l-3.3-3.8-9.4,2.3Z"/>
      <path class="st0" d="M90.5,37.5l1.7,2,9.2-2.7-3.6-4.3c-2.2,1.3-4.8,2.9-7.3,5Z"/>
      <polygon class="st0" points="119.5 58.3 111 61.1 126 78.2 134.5 76.1 119.5 58.3"/>
      <polygon class="st0" points="124.1 39.5 108.6 43.8 119.8 57.1 133.5 52.7 124.1 39.5"/>
      <polygon class="st0" points="98.4 46.5 110.3 60.3 118.8 57.5 107.5 44 98.4 46.5"/>
      <path class="st0" d="M157.1,66c-1.1,0-2.2,0-3.3,0,0-1.8,0-3.9-.3-6.1-.1-1.1-.3-2.2-.5-3.2,0-.1,0-.3,0-.4,0-.1,0-.2,0-.4,0-.2,0-.5-.1-.7,0,0,0-.1,0-.2-.5-2.4-1.3-4.7-2.2-6.9l-15.3,5,13.9,19.3,17.2-4.3c0-.2,0-.3,0-.5,0-3.5-3.5-6.7-9.4-9.3,0,.3,0,.6,0,.8.2,2.5.3,4.8.1,6.7Z"/>
      <path class="st0" d="M91.2,39.8l-1.5-1.7c-1.1.9-2.2,2-3.2,3l4.7-1.4Z"/>
      <path class="st0" d="M83.1,49.7l13.5-3.7-4.7-5.4-6.7,2c-.7.8-1.3,1.6-1.9,2.4-.7,1-1.3,2.1-1.9,3.1l1.7,1.6Z"/>
      <path class="st0" d="M102.4,36.5l16.1-4.7-5.9-8.3c-3.3.3-6.4,1-9.4,2.1v4.1c-.6.3-2.3,1-4.5,2.3l3.8,4.5Z"/>
      <path class="st0" d="M85.8,68.3l-6.1-6.4.7-.7,6.4,6.7,10.2-3.4-14.3-13.8-3.1.8c-1.2,2.7-1.8,5-1.9,6,0,.3-.3,2.5-.3,2.7-.2,1.4-.2,1.8-.3,2.5,0,.8,0,1.6,0,2.1,0,.6,0,1.2,0,1.6-1.1,0-2.2,0-3.3,0-.1-1.9-.1-4.2.1-6.7,0-.5,0-.9.2-1.4-6,2.6-9.5,5.8-9.5,9.3s1.4,4.3,4,6.2l17.2-5.6Z"/>
      <path class="st0" d="M82,50l-1-1c-.2.5-.5,1-.7,1.5l1.7-.5Z"/>
      <path class="st0" d="M101.4,83.1c1.3.1,2.5.2,3.9.3l9-2.2-16.3-15.8-10.3,3.4,13.8,14.3Z"/>
      <polygon class="st0" points="103.1 37.3 107.8 42.9 123.5 38.6 119.2 32.7 103.1 37.3"/>
      <polygon class="st0" points="98.1 64.3 109.3 60.6 97.3 46.8 83.9 50.5 98.1 64.3"/>
      <path class="st0" d="M119.6,31.5l12.9-3.8c-5.1-2.8-10.9-4.3-17-4.3s-1.1,0-1.7,0l5.8,8Z"/>
      <path class="st0" d="M149.6,73.4l3.2,4.5-.8.6-3.5-4.8-12.3,3.1,4.2,5c4.1-.7,7.8-1.6,11.1-2.7,7.9-2.5,13.2-5.9,14.4-9.6l-16.4,4.1Z"/>
      <path class="st0" d="M69.6,74.6c2.4,1.6,5.7,3.1,9.7,4.3,5.7,1.8,12.7,3.2,20.6,4l-13.3-13.8-16.9,5.5Z"/>
    </g>
  </g>
</svg>