<?xml version="1.0" encoding="UTF-8"?><svg id="Layer_1" xmlns="http://www.w3.org/2000/svg" viewBox="0 0 427.2 161.92"><path d="M31.95,79.94v13.84l25.73-6.47c-10.99-1.4-20.07-4.02-25.65-7.34-.03,0-.05-.02-.08-.03Z" style="fill:#fff;"/><path d="M120.22,80.07s0,0,0,0c-4.21,2.47-10.38,4.54-17.83,6.01l2.33,2.74,15.84-5.23c-.01-.2-.02-.39-.03-.6v-3.04c-.1.04-.21.08-.31.13Z" style="fill:#fff;"/><path d="M103.47,89.23l-2.46-2.89c-7.32,1.34-15.79,2.11-24.81,2.11-3.98,0-7.84-.15-11.55-.43l10.26,10.65,28.56-9.44Z" style="fill:#fff;"/><polygon points="85.5 111.42 74.57 100.06 62.29 104.12 62.29 118.11 85.5 111.42" style="fill:#fff;"/><path d="M120.53,101.32v-13.44c.06-.82.1-1.84.08-3.03l-15.03,4.97,10.79,12.71,4.16-1.2Z" style="fill:#fff;"/><path d="M73.63,99.09l-10.81-11.23c-.57-.05-1.13-.1-1.69-.16l-29.17,7.34v5.39l10.96,8.8,14.49-4.79v-8.64h4.89v7.02l11.33-3.74Z" style="fill:#fff;"/><polygon points="62.29 126.36 62.29 135.12 69.38 135.12 72.1 134.24 62.29 126.36" style="fill:#fff;"/><polygon points="89.95 116.04 86.46 112.41 62.29 119.38 62.29 124.8 73.49 133.79 89.95 128.43 89.95 116.04" style="fill:#fff;"/><path d="M115.08,102.89l-10.76-12.66-28.47,9.41,10.98,11.4,3.12-.9v-14.33h5.12v12.85l20-5.76Z" style="fill:#fff;"/><polygon points="89.95 111.41 87.79 112.03 89.95 114.28 89.95 111.41" style="fill:#fff;"/><polygon points="42.67 110.6 31.95 114.14 31.95 126.85 54.73 120.29 42.67 110.6" style="fill:#fff;"/><polygon points="74.63 134.7 75.15 135.12 89.95 135.12 89.95 129.71 74.63 134.7" style="fill:#fff;"/><path d="M55.89,121.22l-23.94,6.9v7h25.45v-12.68l-1.51-1.22Z" style="fill:#fff;"/><polygon points="117.24 103.54 120.53 107.42 120.53 102.6 117.24 103.54" style="fill:#fff;"/><polygon points="101.27 126.03 110.03 135.12 120.53 135.12 120.53 119.76 101.27 126.03" style="fill:#fff;"/><path d="M99.98,126.45l-4.9,1.6v7.08h13.26l-8.35-8.67Z" style="fill:#fff;"/><path d="M57.41,120.79l-.08.02.08.06v-.09Z" style="fill:#fff;"/><path d="M57.41,119.51v-13.78l-13.36,4.41,12.11,9.73,1.24-.36Z" style="fill:#fff;"/><path d="M120.53,118.48v-9.17l-4.58-5.39-20.87,6.01v.64c-.16,1.46-.08,3.84,0,5.92v3.11l5.25,5.45,20.2-6.57Z" style="fill:#fff;"/><polygon points="31.95 102 31.95 112.85 41.53 109.69 31.95 102" style="fill:#fff;"/><path d="M95.08,121.36v5.4l3.96-1.29-3.96-4.11Z" style="fill:#fff;"/><polygon points="75.52 82.82 84.63 80.53 70.37 63.93 59.48 67.51 75.52 82.82" style="fill:#fff;"/><polygon points="59.35 49.23 70.76 62.51 78.6 59.94 67.6 46.99 59.35 49.23" style="fill:#fff;"/><polygon points="80.7 60.54 95.39 77.82 107.46 74.78 94.04 56.16 80.7 60.54" style="fill:#fff;"/><path d="M96.27,78.86l4.24,4.99c2.8-.51,5.43-1.1,7.86-1.77,1.25-.34,2.44-.7,3.57-1.08l-3.7-5.14-11.96,3.01Z" style="fill:#fff;"/><polygon points="84.2 42.49 68.9 46.64 79.85 59.53 93.29 55.12 84.2 42.49" style="fill:#fff;"/><path d="M109.5,75.53l3.64,5.05c6.86-2.46,11.38-5.62,12.44-9.09l-16.08,4.05Z" style="fill:#fff;"/><path d="M85.52,81.56l-8.95,2.25,2.18,2.08c3.46-.06,6.82-.24,10.05-.51l-3.28-3.82Z" style="fill:#fff;"/><path d="M43.52,52.26l13.65-3.7-4.77-5.55-5.41,1.49c-.25.29-.51.58-.76.89-1.55,1.92-2.81,3.87-3.85,5.78l1.14,1.09Z" style="fill:#fff;"/><path d="M42.14,52.64l-.35-.33c-.08.16-.16.33-.24.49l.59-.16Z" style="fill:#fff;"/><polygon points="71.63 63.52 85.95 80.2 94.07 78.15 79.45 60.95 71.63 63.52" style="fill:#fff;"/><path d="M94.51,54.72l15.83-5.2c-1.85-4.5-4.55-8.56-7.9-11.98l-16.98,4.61,9.05,12.57Z" style="fill:#fff;"/><path d="M86.84,81.23l3.45,4.02c3.07-.3,6.02-.69,8.82-1.16l-4.16-4.9-8.11,2.04Z" style="fill:#fff;"/><path d="M75.93,85.93c.36,0,.71,0,1.06,0l-1.83-1.75-6.35,1.6c2.32.11,4.7.16,7.12.16Z" style="fill:#fff;"/><path d="M79.74,34.21l13.27-3.66c-5.17-2.7-11.06-4.24-17.3-4.24-.55,0-1.09.01-1.63.04l5.66,7.86Z" style="fill:#fff;"/><path d="M30.98,76.86c2.92,1.94,7.02,3.67,12.01,5.07,4.95,1.4,10.77,2.49,17.17,3.17l-13.05-13.55-16.13,5.3Z" style="fill:#fff;"/><path d="M62.4,38.99l16.09-4.43-5.84-8.11c-2.98.24-5.86.84-8.6,1.74-.02,1.64-.04,3.29-.06,4.93-1.16.39-2.87,1.03-4.86,2.01l3.29,3.87Z" style="fill:#fff;"/><path d="M110.79,50.66l-15.53,5.1,13.47,18.71,17.08-4.3c0-.09.01-.18.01-.27,0-3.41-3.32-6.57-8.97-9.17.56,3.31.6,6.17.49,8.27-1.01,0-2.01.02-3.02.02-.11-1.76-.29-3.63-.56-5.6-.21-1.48-.45-2.89-.72-4.24-.06-.02-.11-.04-.17-.06-.11-.9-.26-1.79-.44-2.67-.11-.48-.23-.95-.35-1.41.01,0,.03,0,.04,0-.36-1.49-.81-2.95-1.34-4.37Z" style="fill:#fff;"/><path d="M46.17,70.59l-5.69-5.91.88-.85,6.1,6.33,9.7-3.19-13.99-13.36-2.28.62c-2.77,6.44-3.13,12.11-3.19,14.45-1.01,0-2.01-.02-3.02-.02-.1-2.04-.07-4.8.44-8-5.72,2.61-9.1,5.79-9.1,9.22,0,2.15,1.33,4.21,3.72,6.09l16.42-5.39Z" style="fill:#fff;"/><path d="M51.52,41.99l-.96-1.12c-.68.61-1.36,1.25-2.04,1.94l2.99-.83Z" style="fill:#fff;"/><polygon points="63.27 40.01 68.02 45.61 83.44 41.43 79.25 35.61 63.27 40.01" style="fill:#fff;"/><path d="M80.5,35.27l4.19,5.82,16.73-4.54c-2.08-1.97-4.39-3.7-6.88-5.15l-14.04,3.87Z" style="fill:#fff;"/><polygon points="53.7 42.65 58.47 48.21 66.72 45.97 61.97 40.37 53.7 42.65" style="fill:#fff;"/><polygon points="69.51 62.93 58.05 49.59 44.55 53.25 58.48 66.55 69.51 62.93" style="fill:#fff;"/><path d="M62.04,85.3c.9.08,1.81.16,2.73.23l9.35-2.35-15.95-15.23-9.76,3.21,13.63,14.15Z" style="fill:#fff;"/><path d="M51.48,40.07l1.34,1.56,8.28-2.28-3.1-3.65c-2.01,1.08-4.25,2.5-6.51,4.38Z" style="fill:#fff;"/><rect x="170.14" y="26.51" width="6.58" height="44.55" style="fill:#fff;"/><path d="M197.08,71.06l-.37-3.41c-2.54,2.61-5.4,3.97-8.75,3.97-4.53,0-7.26-3.1-7.26-8.5,0-3.66,1.3-6.45,4.09-8.5,2.48-1.92,6.58-3.29,11.6-4.78.37-4.22-.56-6.27-3.85-6.27-2.73,0-4.28,1.61-5.21,4.47l-5.34-1.3c1.43-5.21,4.59-8.56,10.92-8.56,7.01,0,9.93,3.35,9.93,10.18v16.63l.49,6.08h-6.26ZM196.21,54.49c-3.54.99-5.52,1.8-6.95,2.98-1.3,1.05-1.8,2.73-1.8,4.65,0,2.42,1.06,3.97,3.16,3.97s4.16-1.18,5.58-3.1v-8.5Z" style="fill:#fff;"/><path d="M223.69,71.06v-21.65c0-3.54-1.05-4.96-3.35-4.96-1.74,0-3.41.93-5.4,3.23v23.39h-6.58v-32.26h6.39v3.85c2.67-2.98,5.15-4.47,8.44-4.47,2.73,0,4.71,1.05,5.71,2.92,1.05,1.68,1.3,4.03,1.3,7.57v22.4h-6.51Z" style="fill:#fff;"/><path d="M246.03,71.61c-7.76,0-11.54-5.15-11.54-16.88,0-10.42,4.03-16.57,11.66-16.57,8.38,0,11.29,6.64,11.29,14.89,0,.93,0,1.99-.06,3.16h-16.57c.25,6.76,1.68,9.93,5.52,9.93,2.98,0,4.59-2.05,5.52-5.4l5.52,1.12c-1.74,6.82-5.52,9.74-11.35,9.74M240.88,51.45h10.24c0-4.78-1.49-8-4.96-8-3.22,0-4.84,2.85-5.27,8" style="fill:#fff;"/><path d="M276.24,70.87c-1.61.31-3.23.5-5.09.5-5.33,0-7.32-1.99-7.32-8.13v-18.92h-4.28v-5.52h4.28v-10.48h6.51v10.48h5.89v5.52h-5.89v17.81c0,2.3.87,3.23,2.79,3.23.99,0,2.05-.12,3.1-.43v5.96Z" style="fill:#fff;"/><path d="M295.39,71.06l-.37-3.41c-2.54,2.61-5.4,3.97-8.75,3.97-4.53,0-7.26-3.1-7.26-8.5,0-3.66,1.3-6.45,4.09-8.5,2.48-1.92,6.58-3.29,11.6-4.78.37-4.22-.56-6.27-3.85-6.27-2.73,0-4.28,1.61-5.21,4.47l-5.34-1.3c1.43-5.21,4.59-8.56,10.92-8.56,7.01,0,9.93,3.35,9.93,10.18v16.63l.49,6.08h-6.26ZM294.52,54.49c-3.54.99-5.52,1.8-6.95,2.98-1.3,1.05-1.8,2.73-1.8,4.65,0,2.42,1.06,3.97,3.16,3.97s4.16-1.18,5.58-3.1v-8.5Z" style="fill:#fff;"/><path d="M306.67,71.06v-32.26h6.39v5.34c2.11-3.85,4.22-5.96,7.63-5.96.31,0,.62.06,1.05.12v6.76c-.5-.06-.99-.12-1.3-.12-3.16,0-5.46,1.92-7.2,5.52v20.6h-6.58Z" style="fill:#fff;"/><path d="M324.9,26.2h6.82v7.32h-6.82v-7.32ZM325.03,38.79h6.58v32.26h-6.58v-32.26Z" style="fill:#fff;"/><path d="M352.55,71.06v-3.85c-2.73,2.98-5.21,4.4-8.5,4.4-2.73,0-4.59-.99-5.65-2.85-1.05-1.68-1.36-4.03-1.36-7.57v-22.4h6.7v21.65c0,3.54.87,4.96,3.29,4.96,1.68,0,3.35-.93,5.27-3.23v-23.39h6.64v32.26h-6.39Z" style="fill:#fff;"/><path d="M393.74,71.06v-21.9c0-3.6-1.3-4.71-3.04-4.71s-3.35,1.05-4.96,3.04v23.58h-6.58v-21.65c0-3.41-.74-4.96-2.92-4.96-1.74,0-3.54,1.3-5.09,3.29v23.33h-6.58v-32.26h6.39v3.78c2.42-2.79,5.09-4.4,8.13-4.4,3.22,0,5.09,1.61,5.96,4.4,2.61-2.92,5.09-4.4,8.31-4.4,5.15,0,6.89,3.91,6.89,9.93v22.96h-6.52Z" style="fill:#fff;"/><path d="M164.58,134.83v-32.26h6.39v5.34c2.11-3.85,4.22-5.96,7.63-5.96.31,0,.62.06,1.05.12v6.76c-.5-.06-.99-.12-1.3-.12-3.16,0-5.46,1.92-7.2,5.52v20.6h-6.58Z" style="fill:#fff;"/><path d="M182.81,89.97h6.82v7.32h-6.82v-7.32ZM182.94,102.57h6.58v32.26h-6.58v-32.26Z" style="fill:#fff;"/><path d="M209.6,134.64c-1.61.31-3.23.5-5.09.5-5.33,0-7.32-1.99-7.32-8.13v-18.92h-4.28v-5.52h4.28v-10.48h6.51v10.48h5.89v5.52h-5.89v17.81c0,2.3.87,3.23,2.79,3.23.99,0,2.05-.12,3.1-.43v5.96Z" style="fill:#fff;"/><polygon points="212.16 134.83 212.16 129.87 224.81 108.09 213.33 108.09 213.33 102.57 232.63 102.57 232.63 107.59 219.97 129.31 233 129.31 233 134.83 212.16 134.83" style="fill:#fff;"/><rect x="236.75" y="90.28" width="6.58" height="44.55" style="fill:#fff;"/><path d="M263.69,134.83l-.37-3.41c-2.54,2.61-5.4,3.97-8.75,3.97-4.53,0-7.26-3.1-7.26-8.5,0-3.66,1.3-6.45,4.09-8.5,2.48-1.92,6.58-3.29,11.6-4.78.37-4.22-.56-6.27-3.85-6.27-2.73,0-4.28,1.61-5.21,4.47l-5.34-1.3c1.43-5.21,4.59-8.56,10.92-8.56,7.01,0,9.93,3.35,9.93,10.18v16.63l.49,6.08h-6.26ZM262.82,118.26c-3.54.99-5.52,1.8-6.95,2.98-1.3,1.05-1.8,2.73-1.8,4.65,0,2.42,1.06,3.97,3.16,3.97s4.16-1.18,5.58-3.1v-8.5Z" style="fill:#fff;"/><path d="M274.98,134.83v-32.26h6.39v5.34c2.11-3.85,4.22-5.96,7.63-5.96.31,0,.62.06,1.05.12v6.76c-.5-.06-.99-.12-1.3-.12-3.16,0-5.46,1.92-7.2,5.52v20.6h-6.58Z" style="fill:#fff;"/><path d="M139.92,71.06V26.51h11.42c9.8,0,14.83,4.09,14.83,13.28s-5.15,13.59-14.83,13.59h-4.03v17.68h-7.38ZM151.64,46.86c3.6,0,6.95-1.61,6.95-7.07,0-4.78-2.48-6.58-6.83-6.58h-4.47v13.65h4.34Z" style="fill:#fff;"/><polygon points="139.92 134.83 139.92 90.28 163.06 90.28 163.06 96.98 147.3 96.98 147.3 108.59 159.03 108.59 159.03 115.04 147.3 115.04 147.3 134.83 139.92 134.83" style="fill:#fff;"/></svg>